<?xml version="1.0" encoding="utf-8"?>
<!-- Generator: Adobe Illustrator 20.0.0, SVG Export Plug-In . SVG Version: 6.00 Build 0)  -->
<svg version="1.1" id="Layer_1" xmlns="http://www.w3.org/2000/svg" xmlns:xlink="http://www.w3.org/1999/xlink" x="0px" y="0px"
	 viewBox="0 0 163.4 54" style="enable-background:new 0 0 163.4 54;" xml:space="preserve">
<style type="text/css">
	.st0{fill:#F2662B;}
	.st1{fill:#58595B;}
</style>
<g>
	<g>
		<path class="st0" d="M43.3,1.9C42.1,3.1,41,4.3,40,5.6c-1,1.3-2,2.7-3,4.1c-1.2,1.7-2.5,3.5-3.7,5.3c-1.2,1.8-2.4,3.6-3.5,5.5
			c0,0,0.1,0,0.1,0c0,0,0.1,0,0.1,0c0.2,0,0.6-0.1,1.2-0.1c0.6,0,1.2,0,1.8,0.1c0.6,0.1,1,0.3,1.3,0.5c0.3,0.3,0.2,0.7-0.2,1.2
			c-0.3,0.3-0.6,0.5-1,0.4c-0.4-0.1-0.7-0.1-1.1-0.1c-0.7,0-1.4,0-1.9,0.1c-0.6,0-1.1,0.1-1.6,0.2c-1.1,1.7-2.1,3.4-3.1,5.1
			c-1,1.7-1.8,3.6-2.4,5.4c-0.1,0.3-0.2,0.7-0.3,1.2c-0.1,0.5-0.1,0.9,0.2,1.1c0.3,0.3,0.7,0.5,1.2,0.4c0.5-0.1,1-0.1,1.4-0.2
			c1.1-0.2,2.2-0.6,3.2-1.1c1-0.5,2-1,3.1-1.5l6.1-2.9l3-1.5c0.2-0.1,0.4-0.2,0.6-0.3c0.2-0.1,0.4-0.1,0.6,0.1
			c0.2,0.1,0.3,0.3,0.3,0.6c0,0.3-0.1,0.5-0.4,0.6c-1.8,0.9-3.6,1.8-5.4,2.6c-1.8,0.8-3.6,1.7-5.4,2.6c-1.1,0.6-2.2,1.2-3.4,1.8
			c-1.2,0.7-2.4,1-3.6,1.1c-0.7,0.1-1.4,0-2.1-0.3c-0.7-0.3-1.2-0.8-1.4-1.4c-0.4-0.9-0.4-1.9,0-2.9c0.3-1,0.7-1.9,1.1-2.7
			c0.7-1.4,1.4-2.7,2.1-4c0.8-1.3,1.5-2.6,2.4-3.8c-0.8,0.2-1.5,0.4-2.3,0.6c-0.7,0.2-1.5,0.4-2.2,0.6c-1.6,0.5-3.1,1-4.6,1.6
			c-1.5,0.6-3,1.3-4.5,2.1c-0.9,1.5-1.9,2.9-2.9,4.3c-1,1.4-2.1,2.8-3.2,4.1c-0.6,0.7-1.2,1.3-1.9,1.9c-0.7,0.6-1.5,1.1-2.4,1.4
			c-0.6,0.1-1.1,0.1-1.4-0.1c-0.3-0.2-0.6-0.5-0.7-0.8C0,38.3,0,37.9,0,37.4c0-0.5,0.2-0.9,0.4-1.4c0.5-0.9,1.1-1.8,1.8-2.7
			C3,32.5,3.8,31.7,4.7,31c0.9-0.7,1.8-1.4,2.8-2c1-0.6,1.9-1.2,2.8-1.7l1.6-0.9c0.7-1.1,1.4-2.1,2-3.2c0.6-1.1,1.2-2.2,1.9-3.3
			c1-1.8,2-3.5,2.9-5.3c1-1.8,1.7-3.7,2.2-5.7c0.1-0.5,0.2-0.9,0.2-1.3c0.1-0.4,0.1-0.9,0-1.3c0-0.6-0.2-0.9-0.4-1.1
			c-0.2-0.2-0.5-0.4-0.9-0.7c-0.2-0.2-0.4-0.4-0.4-0.7c0-0.3,0-0.5,0.2-0.7C19.8,3,20,2.8,20.2,2.7c0.2-0.1,0.5-0.1,0.8,0
			c1,0.4,1.6,1,1.9,1.9c0.3,0.8,0.4,1.8,0.3,2.7s-0.4,2-0.7,3c-0.4,1-0.7,1.8-1,2.5c-0.9,2.2-2,4.2-3.3,6.2c-1.3,2-2.6,4.1-3.9,6.3
			c1.5-0.7,3-1.3,4.5-1.9c1.5-0.6,3.1-1.1,4.7-1.5c1.3-0.5,2.7-0.9,4.3-1.1c0.9-1.3,1.8-2.6,2.7-3.9c0.9-1.3,1.8-2.6,2.6-3.9
			c0.9-1.5,1.9-3,2.9-4.5c1-1.5,2-3,3-4.4c0.4-0.6,0.9-1.3,1.4-2.2c0.5-0.8,1.1-1.4,1.7-1.8C42.4,0,42.6,0,42.9,0
			c0.2,0.1,0.4,0.2,0.6,0.4c0.1,0.2,0.2,0.5,0.2,0.7C43.7,1.5,43.5,1.7,43.3,1.9z M4.9,33.3c-0.2,0.2-0.5,0.5-0.8,0.8
			c-0.3,0.3-0.6,0.7-0.9,1c-0.3,0.4-0.5,0.7-0.8,1.1c-0.2,0.4-0.3,0.8-0.3,1.1c0.7-0.2,1.3-0.7,2.1-1.3c0.7-0.6,1.4-1.3,2-2
			C6.8,33.5,7.4,32.8,8,32c0.6-0.7,1.1-1.4,1.5-2l0.6-0.8c-0.9,0.6-1.9,1.2-2.7,1.8C6.4,31.7,5.6,32.5,4.9,33.3z"/>
		<path class="st0" d="M47.7,25.7c0.8-0.3,1.7-0.6,2.6-0.9c0.9-0.2,1.7-0.5,2.6-0.7c0.5-0.3,1.1-0.5,1.8-0.7
			c0.7-0.2,1.2-0.1,1.8,0.2c0.3,0.2,0.5,0.6,0.4,1c0.3,0,0.6,0,0.9,0.2c0.5,0.5,0.7,1.2,0.6,1.9c-0.2,0.7-0.5,1.5-0.9,2.2
			c0.2,0.2,0.4,0.4,0.7,0.6c0.7,0.4,1.4,0.6,2.2,0.6c0.8,0,1.5-0.2,2.2-0.4c0.2,0,0.5-0.2,0.9-0.4c0.4-0.2,0.8-0.4,1.3-0.6
			c0.4-0.2,0.8-0.3,1.2-0.4c0.4-0.1,0.6,0,0.7,0.3c0.2,0.3,0.1,0.6-0.1,0.8c-0.2,0.2-0.5,0.4-0.8,0.6c-0.3,0.1-0.7,0.3-1.1,0.4
			c-0.4,0.1-0.6,0.2-0.7,0.2c-0.6,0.2-1.3,0.4-1.9,0.5c-0.7,0.1-1.3,0.2-2,0.2c-0.7,0-1.3-0.1-1.9-0.3c-0.6-0.2-1.1-0.5-1.6-1
			l-1.4,1.4c-0.5,0.5-1,0.9-1.7,1.4c-0.6,0.5-1.3,0.8-1.9,1.1c-0.7,0.3-1.4,0.5-2.1,0.6c-0.7,0.1-1.4,0-2.1-0.3
			c-0.8-0.4-1.3-0.9-1.4-1.4c-0.1-0.6-0.1-1.2,0.2-1.9c0.2-0.7,0.6-1.3,1-1.9c0.5-0.6,0.9-1.1,1.3-1.5l1.2-1.2
			c-0.9,0.3-1.9,0.7-2.8,1.1c-0.9,0.4-1.8,0.8-2.7,1.3c-0.2,0.1-0.4,0.2-0.6,0.3c-0.2,0.1-0.5,0.3-0.7,0.4c-0.2,0.1-0.5,0.2-0.7,0.3
			c-0.2,0.1-0.4,0-0.6-0.1c-0.3-0.2-0.4-0.4-0.4-0.7c0-0.3,0.2-0.5,0.4-0.6L47.7,25.7z M49.8,27.9c-0.2,0.2-0.5,0.5-0.9,0.9
			c-0.4,0.5-0.8,0.9-1.1,1.4c-0.3,0.5-0.5,1-0.6,1.4c-0.1,0.4,0.2,0.7,0.8,0.8c1.1,0.2,2.1,0.1,3-0.1c1-0.2,1.8-0.7,2.6-1.4
			c0.3-0.3,0.6-0.6,0.9-0.9c0.3-0.3,0.5-0.6,0.7-1c-0.2-0.5-0.3-1.1-0.3-1.7c0-0.6,0.1-1.1,0.5-1.6c-1.1,0.1-2.2,0.3-3.1,0.7
			C51.3,26.8,50.5,27.3,49.8,27.9z"/>
		<path class="st0" d="M65.4,28.5c1.1-0.5,2.1-1,3.1-1.5c1-0.6,2-1.1,3.1-1.6c0.2-0.1,0.6-0.3,1.1-0.5c0.5-0.2,0.9-0.3,1.4-0.4
			c0.4-0.1,0.8,0,1,0.2c0.2,0.2,0.3,0.6,0.1,1.3c-0.1,0.5-0.4,1-0.7,1.5c-0.3,0.5-0.6,1.1-0.9,1.6L72,32.2c-0.2,0.2-0.3,0.5-0.4,0.7
			c-0.1,0.2-0.2,0.5-0.4,0.7c1.2-1.4,2.5-2.7,3.8-4.1c1.3-1.3,2.7-2.5,4.2-3.6c0.9-0.7,1.8-1.3,3-1.9c1.1-0.6,2.2-0.8,3.3-0.6
			c0.7,0.1,1.1,0.4,1.2,0.8c0.1,0.4,0.1,0.9,0,1.4c-0.1,0.5-0.4,1-0.6,1.5c-0.3,0.5-0.5,0.9-0.7,1.2l-2.6,3.3
			c0.9-0.2,1.8-0.5,2.6-0.7c0.9-0.3,1.7-0.6,2.6-1c0.2-0.1,0.4-0.2,0.8-0.5c0.4-0.2,0.8-0.4,1.2-0.6c0.4-0.2,0.8-0.3,1.1-0.2
			c0.3,0,0.5,0.2,0.5,0.6c0,0.3-0.2,0.6-0.5,0.8c-0.3,0.2-0.7,0.5-1.2,0.7c-0.5,0.2-0.9,0.4-1.4,0.6c-0.5,0.2-0.8,0.3-1,0.4
			c-0.2,0.1-0.9,0.3-1.8,0.7c-1,0.3-2,0.7-3.1,1c-1.1,0.4-2.2,0.7-3.2,1c-1,0.3-1.7,0.5-2,0.5c-0.3,0-0.5-0.1-0.6-0.3
			c-0.1-0.2-0.2-0.5-0.2-0.8c0-0.3,0.2-0.6,0.4-0.8c0.2-0.3,0.6-0.4,1.1-0.5c0.7,0,1.3-0.2,1.8-0.6c0.5-0.4,1-0.8,1.5-1.3
			c0.9-0.8,1.6-1.7,2.2-2.7c0.1-0.2,0.3-0.5,0.6-1c0.2-0.4,0.4-0.8,0.5-1.2c-0.7,0-1.3,0.2-1.9,0.5c-0.6,0.3-1.3,0.6-1.9,1
			c-0.6,0.4-1.2,0.8-1.8,1.3c-0.6,0.5-1.1,0.9-1.5,1.2c-1.3,1-2.6,2.1-3.7,3.3c-1.2,1.2-2.3,2.4-3.4,3.7l-1.7,2l-4.1,8.5
			c-0.2,0.5-0.6,1.1-0.9,1.9c-0.4,0.8-0.8,1.6-1.3,2.4c-0.5,0.8-1,1.4-1.5,1.9c-0.6,0.5-1.2,0.7-1.8,0.6c-0.5-0.1-0.8-0.4-1-0.7
			c-0.1-0.3-0.2-0.8-0.1-1.2c0.1-0.5,0.3-1,0.5-1.5c0.2-0.5,0.5-1,0.8-1.5c0.3-0.5,0.6-0.9,0.8-1.3c0.2-0.4,0.4-0.6,0.6-0.8
			c1.1-1.6,2.2-3.2,3.4-4.7c1.2-1.5,2.4-3,3.6-4.5c0.9-1.8,1.7-3.7,2.5-5.5c0.8-1.8,1.5-3.6,2.3-5.5c-0.8,0.2-1.5,0.5-2.3,0.9
			c-0.8,0.4-1.5,0.8-2.1,1c-0.3,0.2-0.7,0.4-1.1,0.7c-0.4,0.3-0.9,0.5-1.3,0.4c-0.4,0-0.6-0.2-0.7-0.6C64.9,28.9,65,28.6,65.4,28.5z
			"/>
		<path class="st0" d="M90.6,28.5c0.7-0.4,1.5-0.8,2.3-1.2c0.8-0.5,1.6-0.8,2.4-1.2c0.5-0.9,1.3-1.7,2.3-2.3c1-0.6,2-1,3.1-1.2
			c0.6-0.1,1.2-0.1,2,0c0.8,0.1,1.3,0.4,1.8,0.9c0.3,0.3,0.4,0.7,0.2,1c-0.1,0.4-0.4,0.7-0.7,1c-0.3,0.3-0.7,0.6-1.2,0.9
			c-0.4,0.3-0.7,0.5-1,0.6c-0.7,0.5-1.5,0.8-2.4,1c-0.9,0.2-1.8,0.3-2.7,0.2h-0.2c0.2,0.9,0.5,1.6,1.1,2.1c0.6,0.5,1.2,0.9,2,1.1
			c0.8,0.2,1.6,0.3,2.4,0.3c0.8,0,1.6-0.1,2.3-0.2c1-0.2,1.9-0.5,2.9-0.8c0.9-0.3,1.9-0.7,2.8-1.1c0.4-0.2,0.8-0.4,1.3-0.6
			c0.4-0.2,0.8-0.4,1.2-0.6c0.3-0.1,0.6,0,0.9,0.1c0.3,0.2,0.3,0.4,0.1,0.8c-0.2,0.3-0.5,0.6-0.9,0.7c-0.4,0.1-0.7,0.2-1,0.4
			l-3.1,1.4c-1.9,0.7-3.8,1.4-5.6,1.8c-0.8,0.2-1.7,0.2-2.5,0.2c-0.8-0.1-1.6-0.2-2.3-0.6c-0.7-0.3-1.4-0.7-1.9-1.3
			c-0.6-0.6-1-1.3-1.2-2.2c-0.1-0.3-0.2-0.7-0.2-1c-0.1-0.3-0.1-0.6,0-0.9c-0.5,0.2-0.9,0.4-1.3,0.7c-0.4,0.3-0.8,0.5-1.1,0.7
			c-0.2,0.1-0.5,0.2-0.8,0.5c-0.3,0.2-0.7,0.2-1,0c-0.2-0.2-0.4-0.4-0.3-0.7C90.3,28.8,90.4,28.6,90.6,28.5z M96.9,26.8
			c1,0,1.9-0.3,2.9-0.7c0.9-0.5,1.7-1,2.4-1.7c-0.6-0.2-1.1-0.3-1.7-0.2c-0.6,0.1-1.1,0.2-1.5,0.5c-0.5,0.2-0.9,0.6-1.3,1
			C97.3,26,97.1,26.4,96.9,26.8z"/>
	</g>
	<g>
		<path class="st1" d="M83.1,52.1c-0.4,0.2-1.1,0.4-2.1,0.4c-2.6,0-4.2-1.7-4.2-4.2c0-2.7,1.9-4.4,4.4-4.4c1,0,1.7,0.2,2,0.4
			l-0.3,1.2c-0.4-0.2-0.9-0.3-1.6-0.3c-1.7,0-2.9,1.1-2.9,3.1c0,1.8,1.1,3,2.9,3c0.6,0,1.3-0.1,1.7-0.3L83.1,52.1z"/>
		<path class="st1" d="M84.3,43.6h1.5v3.6h0c0.2-0.3,0.4-0.5,0.8-0.7c0.3-0.2,0.7-0.3,1-0.3c1,0,2.1,0.7,2.1,2.6v3.5h-1.5V49
			c0-0.9-0.3-1.5-1.2-1.5c-0.6,0-1,0.4-1.2,0.9c0,0.1-0.1,0.3-0.1,0.5v3.6h-1.5V43.6z"/>
		<path class="st1" d="M93,44.7c0,0.5-0.3,0.8-0.9,0.8c-0.5,0-0.8-0.4-0.8-0.8c0-0.5,0.3-0.8,0.9-0.8C92.6,43.8,93,44.2,93,44.7z
			 M91.4,52.4v-6h1.5v6H91.4z"/>
		<path class="st1" d="M94.5,43.6h1.5v8.8h-1.5V43.6z"/>
		<path class="st1" d="M103.2,43.6v7.1c0,0.6,0,1.3,0,1.7h-1.4l-0.1-0.9h0c-0.4,0.7-1.1,1.1-2,1.1c-1.4,0-2.6-1.2-2.6-3.1
			c0-2,1.2-3.2,2.7-3.2c0.8,0,1.4,0.3,1.7,0.8h0v-3.4H103.2z M101.7,48.9c0-0.1,0-0.3,0-0.4c-0.1-0.6-0.6-1.1-1.3-1.1
			c-1,0-1.5,0.9-1.5,2c0,1.1,0.5,1.9,1.5,1.9c0.6,0,1.2-0.4,1.3-1.1c0-0.1,0-0.3,0-0.4V48.9z"/>
		<path class="st1" d="M104.9,48.3c0-0.8,0-1.4,0-1.9h1.3l0,1.1h0c0.3-0.9,1-1.3,1.6-1.3c0.1,0,0.2,0,0.4,0v1.4c-0.1,0-0.3,0-0.4,0
			c-0.7,0-1.2,0.5-1.4,1.1c0,0.1,0,0.3,0,0.5v3.1h-1.5V48.3z"/>
		<path class="st1" d="M110.2,49.8c0,1.1,0.9,1.6,1.8,1.6c0.7,0,1.2-0.1,1.7-0.3l0.2,1c-0.5,0.2-1.2,0.4-2.1,0.4
			c-1.9,0-3.1-1.2-3.1-3c0-1.7,1-3.2,2.9-3.2c1.9,0,2.6,1.6,2.6,2.9c0,0.3,0,0.5,0,0.6H110.2z M112.8,48.7c0-0.6-0.2-1.5-1.2-1.5
			c-0.9,0-1.3,0.9-1.4,1.5H112.8z"/>
		<path class="st1" d="M115.5,48.1c0-0.7,0-1.3,0-1.8h1.3l0.1,0.9h0c0.3-0.5,0.9-1,1.9-1c1,0,2.1,0.7,2.1,2.6v3.6h-1.5V49
			c0-0.9-0.3-1.5-1.1-1.5c-0.6,0-1,0.4-1.2,0.9c0,0.1-0.1,0.3-0.1,0.5v3.5h-1.5V48.1z"/>
		<path class="st1" d="M123.5,43.9l-0.2,3.2h-0.9l-0.2-3.2H123.5z"/>
		<path class="st1" d="M124.8,51c0.3,0.2,1,0.4,1.5,0.4c0.7,0,1-0.3,1-0.7c0-0.4-0.2-0.6-1-0.9c-1.2-0.4-1.7-1-1.7-1.8
			c0-1.1,0.9-1.9,2.3-1.9c0.7,0,1.2,0.2,1.6,0.4l-0.3,1.1c-0.3-0.1-0.7-0.3-1.3-0.3c-0.5,0-0.8,0.3-0.8,0.6c0,0.4,0.3,0.6,1,0.8
			c1.1,0.4,1.6,0.9,1.6,1.8c0,1.1-0.9,1.9-2.4,1.9c-0.7,0-1.4-0.2-1.8-0.4L124.8,51z"/>
		<path class="st1" d="M134.1,44v3.3h3.5V44h1.5v8.3h-1.5v-3.7h-3.5v3.7h-1.5V44H134.1z"/>
		<path class="st1" d="M146.5,49.3c0,2.2-1.6,3.2-3.1,3.2c-1.7,0-3-1.2-3-3.1c0-2,1.3-3.2,3.1-3.2C145.3,46.2,146.5,47.5,146.5,49.3
			z M142,49.4c0,1.2,0.6,2,1.5,2c0.9,0,1.5-0.9,1.5-2.1c0-0.9-0.4-2-1.5-2C142.4,47.3,142,48.4,142,49.4z"/>
		<path class="st1" d="M147.8,48.1c0-0.7,0-1.3,0-1.8h1.3l0.1,0.9h0c0.3-0.5,0.8-1,1.8-1c0.8,0,1.4,0.4,1.7,1.1h0
			c0.2-0.3,0.5-0.6,0.7-0.8c0.3-0.2,0.7-0.4,1.2-0.4c1,0,2,0.7,2,2.6v3.5h-1.5V49c0-1-0.3-1.6-1.1-1.6c-0.5,0-0.9,0.4-1.1,0.8
			c0,0.1-0.1,0.3-0.1,0.5v3.6h-1.5v-3.5c0-0.8-0.3-1.4-1-1.4c-0.6,0-0.9,0.4-1.1,0.9c-0.1,0.1-0.1,0.3-0.1,0.5v3.6h-1.5V48.1z"/>
		<path class="st1" d="M159.3,49.8c0,1.1,0.9,1.6,1.8,1.6c0.7,0,1.2-0.1,1.7-0.3l0.2,1c-0.5,0.2-1.2,0.4-2.1,0.4
			c-1.9,0-3.1-1.2-3.1-3c0-1.7,1-3.2,2.9-3.2c1.9,0,2.6,1.6,2.6,2.9c0,0.3,0,0.5,0,0.6H159.3z M162,48.7c0-0.6-0.2-1.5-1.2-1.5
			c-0.9,0-1.3,0.9-1.4,1.5H162z"/>
	</g>
</g>
</svg>
